<svg xmlns="http://www.w3.org/2000/svg" viewBox="0 0 1040 520" font-family="Inter, system-ui, -apple-system, 'Segoe UI', sans-serif">
  <defs>
    <filter id="soft3" x="-20%" y="-20%" width="140%" height="140%">
      <feDropShadow dx="0" dy="2" stdDeviation="3.5" flood-color="#2B2118" flood-opacity="0.09"/>
    </filter>
  </defs>

  <rect x="0" y="0" width="1040" height="520" fill="#F6EEE2"/>

  <!-- title -->
  <text x="40" y="46" font-size="21" font-weight="700" fill="#2B2118">Retrieved documents &amp; citations</text>

  <!-- query pill -->
  <g filter="url(#soft3)"><rect x="40" y="64" width="752" height="44" rx="22" fill="#FFFFFF" stroke="#E5D6C3" stroke-width="1.5"/></g>
  <circle cx="68" cy="86" r="7.5" fill="none" stroke="#9A8468" stroke-width="2.2"/>
  <line x1="73.5" y1="91.5" x2="80" y2="98" stroke="#9A8468" stroke-width="2.2" stroke-linecap="round"/>
  <text x="92" y="91" font-size="14.5" fill="#2B2118">“who played taylor on the bold and beautiful?”</text>

  <!-- ================= citation cards (rank order) ================= -->
  <!-- Card 1 — GOLD / relevant (accent highlight) -->
  <g filter="url(#soft3)"><rect x="40" y="140" width="476" height="92" rx="13" fill="#FFFFFF" stroke="#5B4636" stroke-width="2"/></g>
  <circle cx="74" cy="186" r="16" fill="#5B4636"/>
  <text x="74" y="191" text-anchor="middle" font-size="14" font-weight="700" fill="#FBF3E4">1</text>
  <text x="106" y="174" font-size="13.5" font-weight="600" fill="#2B2118">Taylor Hayes — played by Hunter Tylo</text>
  <text x="106" y="194" font-size="11.5" fill="#7A6A58">The Bold and the Beautiful · soap opera</text>
  <g><rect x="106" y="204" width="92" height="19" rx="9.5" fill="#EADCC9"/></g>
  <text x="152" y="217" text-anchor="middle" font-size="10.5" font-weight="600" fill="#5B4636">✓ relevant</text>

  <!-- Card 2 -->
  <g filter="url(#soft3)"><rect x="536" y="140" width="464" height="92" rx="13" fill="#FFFFFF" stroke="#E5D6C3" stroke-width="1.5"/></g>
  <circle cx="570" cy="186" r="16" fill="#EAD9BF"/>
  <text x="570" y="191" text-anchor="middle" font-size="14" font-weight="700" fill="#5B4636">2</text>
  <text x="602" y="180" font-size="13.5" font-weight="600" fill="#2B2118">Sheila Carter — Kimberlin Brown</text>
  <text x="602" y="200" font-size="11.5" fill="#7A6A58">The Bold and the Beautiful</text>

  <!-- Card 3 -->
  <g filter="url(#soft3)"><rect x="40" y="256" width="476" height="92" rx="13" fill="#FFFFFF" stroke="#E5D6C3" stroke-width="1.5"/></g>
  <circle cx="74" cy="302" r="16" fill="#EAD9BF"/>
  <text x="74" y="307" text-anchor="middle" font-size="14" font-weight="700" fill="#5B4636">3</text>
  <text x="106" y="296" font-size="13.5" font-weight="600" fill="#2B2118">Ashley Abbott — Eileen Davidson</text>
  <text x="106" y="316" font-size="11.5" fill="#7A6A58">The Young and the Restless</text>

  <!-- Card 4 -->
  <g filter="url(#soft3)"><rect x="536" y="256" width="464" height="92" rx="13" fill="#FFFFFF" stroke="#E5D6C3" stroke-width="1.5"/></g>
  <circle cx="570" cy="302" r="16" fill="#EAD9BF"/>
  <text x="570" y="307" text-anchor="middle" font-size="14" font-weight="700" fill="#5B4636">4</text>
  <text x="602" y="296" font-size="13.5" font-weight="600" fill="#2B2118">Belle — Beauty and the Beast</text>
  <text x="602" y="316" font-size="11.5" fill="#7A6A58">character · first appearance</text>

  <!-- Card 5 -->
  <g filter="url(#soft3)"><rect x="40" y="372" width="476" height="92" rx="13" fill="#FFFFFF" stroke="#E5D6C3" stroke-width="1.5"/></g>
  <circle cx="74" cy="418" r="16" fill="#EAD9BF"/>
  <text x="74" y="423" text-anchor="middle" font-size="14" font-weight="700" fill="#5B4636">5</text>
  <text x="106" y="412" font-size="13.5" font-weight="600" fill="#2B2118">Abigail Hawk (b. A. D. Gustafson)</text>
  <text x="106" y="432" font-size="11.5" fill="#7A6A58">American actress</text>

  <!-- Card 6 -->
  <g filter="url(#soft3)"><rect x="536" y="372" width="464" height="92" rx="13" fill="#FFFFFF" stroke="#E5D6C3" stroke-width="1.5"/></g>
  <circle cx="570" cy="418" r="16" fill="#EAD9BF"/>
  <text x="570" y="423" text-anchor="middle" font-size="14" font-weight="700" fill="#5B4636">6</text>
  <text x="602" y="412" font-size="13.5" font-weight="600" fill="#2B2118">Beauty and the Beast (Fr.)</text>
  <text x="602" y="432" font-size="11.5" fill="#7A6A58">traditional fairy tale</text>

  <!-- footer -->
  <text x="40" y="496" font-size="11" fill="#A2917C">Dense retrieval + cross-encoder re-ranking · gold passage ranked #1 of top-10 · grounds the generated answer</text>
</svg>
